# xmcd CD database file
# Copyright (C) 1997 Ti Kan
#
# Track frame offsets:
#  150
#  32445
#  44707
#  57792
#  76770
#  95745
#  108345
#  130952
#  153755
#  173572
#  187912
#  203510
#  220897
#  240717
#  257302
#  279612
#  293127
#
# Disc length: 4157 seconds
#
# Revision: 1
# Processed by: cddbd v1.4b41PL1 Copyright (c) Steve Scherf et al.
# Submitted via: CDWizzard Release:4.23
#
DISCID=e0103b11
DTITLE=Eric Clapton - The Cream Of Clapton
DYEAR=1900
DGENRE=
TTITLE0=Layla
TTITLE1=Badge
TTITLE2=I Feel Free
TTITLE3=Sunshine Of Your Love
TTITLE4=Crossroads
TTITLE5=Strange Brew
TTITLE6=White Room
TTITLE7=Bell Bottom Blues
TTITLE8=I Shot The Sheriff
TTITLE9=After Midnight
TTITLE10=Swing Low Sweet Chariot
TTITLE11=Lay Down Sally
TTITLE12=Knockin' On Heavens Door
TTITLE13=Wonderful Tonight
TTITLE14=Let It Grow
TTITLE15=Promises
TTITLE16=I Can't Stand It
EXTD=
EXTT0=
EXTT1=
EXTT2=
EXTT3=
EXTT4=
EXTT5=
EXTT6=
EXTT7=
EXTT8=
EXTT9=
EXTT10=
EXTT11=
EXTT12=
EXTT13=
EXTT14=
EXTT15=
EXTT16=
PLAYORDER=
